<?xml version="1.0" encoding="UTF-8" standalone="no"?>
<svg
   aria-hidden="true"
   role="img"
   class="iconify iconify--logos"
   width="31.88"
   height="32"
   preserveAspectRatio="xMidYMid meet"
   viewBox="0 0 256 257"
   version="1.1"
   id="svg6"
   sodipodi:docname="vite.svg"
   inkscape:version="1.4.3 (0d15f75042, 2025-12-25)"
   xmlns:inkscape="http://www.inkscape.org/namespaces/inkscape"
   xmlns:sodipodi="http://sodipodi.sourceforge.net/DTD/sodipodi-0.dtd"
   xmlns="http://www.w3.org/2000/svg"
   xmlns:svg="http://www.w3.org/2000/svg">
  <sodipodi:namedview
     id="namedview6"
     pagecolor="#ffffff"
     bordercolor="#000000"
     borderopacity="0.25"
     inkscape:showpageshadow="2"
     inkscape:pageopacity="0.0"
     inkscape:pagecheckerboard="0"
     inkscape:deskcolor="#d1d1d1"
     inkscape:zoom="18.46875"
     inkscape:cx="15.945854"
     inkscape:cy="16"
     inkscape:window-width="1440"
     inkscape:window-height="832"
     inkscape:window-x="0"
     inkscape:window-y="0"
     inkscape:window-maximized="1"
     inkscape:current-layer="svg6" />
  <defs
     id="defs5">
    <linearGradient
       id="IconifyId1813088fe1fbc01fb466"
       x1="-.828%"
       x2="57.636%"
       y1="7.652%"
       y2="78.411%">
      <stop
         offset="0%"
         stop-color="#41D1FF"
         id="stop1" />
      <stop
         offset="100%"
         stop-color="#BD34FE"
         id="stop2" />
    </linearGradient>
    <linearGradient
       id="IconifyId1813088fe1fbc01fb467"
       x1="43.376%"
       x2="50.316%"
       y1="2.242%"
       y2="89.03%">
      <stop
         offset="0%"
         stop-color="#FFEA83"
         id="stop3" />
      <stop
         offset="8.333%"
         stop-color="#FFDD35"
         id="stop4" />
      <stop
         offset="100%"
         stop-color="#FFA800"
         id="stop5" />
    </linearGradient>
  </defs>
  <path
     style="fill:#000000;stroke-width:8.03125"
     d="m 69.993722,103.49577 c 3.393409,0.71314 -1.911654,4.35142 -0.869712,6.08799 0.80481,1.34135 1.603583,1.33632 2.609137,2.17428 4.445286,3.7044 4.299039,3.47885 10.436549,3.47885 1.549797,0 3.80287,0.1313 5.218273,-0.43486 2.115434,-0.84618 0.819211,-0.76871 1.739425,-2.60914 0.183354,-0.3667 0.658779,-0.51815 0.869712,-0.86971 1.340364,-2.23394 1.166632,-6.32175 0.869709,-8.69712 -0.172326,-1.37864 -2.806172,-5.850172 -3.913702,-6.957702 -0.643409,-0.643408 -3.572485,-2.06054 -3.913705,-2.17428 -0.674911,-0.224971 -10.686658,-1.840802 -11.741117,-0.434857 -0.550054,0.733407 -0.398044,1.823025 -0.869712,2.609137 -0.210933,0.35156 -0.623723,0.541724 -0.869713,0.869713 -1.441499,1.921999 0.620214,5.196819 0.434852,6.957699 -0.163435,1.5526 -1.310535,2.84745 -1.739425,4.34856 -0.159211,0.55725 -0.345729,3.91371 0.434861,3.91371"
     id="path6" />
  <path
     style="fill:#000000;stroke-width:8.03125"
     d="m 143.04956,92.624365 c -2.92188,0.93507 -7.18983,2.203684 -8.69712,5.218274 -0.6515,1.302912 0.28246,3.805931 0,5.218271 -0.23652,1.18254 -0.88545,1.93719 0,3.044 1.13166,1.41457 2.71097,3.09491 4.34856,3.9137 3.84321,1.92161 11.32769,4.92123 15.65482,3.47886 2.91642,-0.97215 5.97073,-6.17108 6.9577,-9.13199 0.22921,-0.68757 -0.10248,-1.4568 0,-2.17428 0.34583,-2.420731 0.91976,-4.056061 -0.43489,-6.087985 -0.17982,-0.269689 -0.17557,-0.675243 -0.43489,-0.869713 -0.36671,-0.27503 -0.87898,-0.264621 -1.30457,-0.434852 -1.44947,-0.579792 -2.30366,-1.036227 -3.91371,-1.304568 -1.6556,-0.275938 -3.58907,0.407297 -5.21827,0 -2.22719,-0.556798 -4.59375,-0.532006 -6.9577,-0.869713 z"
     id="path7" />
  <path
     style="fill:#000000;stroke-width:8.03125"
     d="m 14.766988,110.45347 c 0.869713,4.34856 1.739425,8.69712 2.609137,13.04569 0.144948,2.31923 0.0066,4.67374 0.43486,6.95769 0.447791,2.38822 1.488662,4.6266 2.17428,6.9577 1.191044,4.04955 1.764512,8.31871 3.47885,12.17598 0.555385,1.24961 1.562727,2.25574 2.174281,3.47885 0.987378,1.97475 1.728812,4.06323 2.609137,6.08798 0.569231,1.30922 1.329204,2.5463 1.739425,3.91371 1.184405,3.94801 1.343876,8.35071 3.043993,12.17597 1.983959,4.4639 6.528439,8.94961 10.436548,11.74112 0.791247,0.56516 1.739425,0.86971 2.609137,1.30456 0.869712,0.57978 1.772926,1.11227 2.609137,1.73943 3.700092,2.77506 1.533788,1.4239 4.783418,4.34856 1.589171,1.43026 5.16322,3.90366 6.522843,4.78342 5.159844,3.33872 0.837074,0.44702 6.087986,2.60913 1.498546,0.61704 2.850017,1.55724 4.348562,2.17429 3.919245,1.6138 8.572346,1.99047 12.610829,3.04399 1.330602,0.34711 2.57131,1.00626 3.913701,1.30457 1.281338,0.2847 2.624291,0.18929 3.913708,0.43489 1.761294,0.33546 3.45698,0.96908 5.218273,1.30456 1.289417,0.2456 2.633752,0.14392 3.913708,0.4349 1.922529,0.4369 3.730599,1.30248 5.653129,1.73942 1.27995,0.29089 2.62359,0.19299 3.9137,0.43481 1.0372,0.19452 2.00922,0.66274 3.044,0.86971 7.15735,1.43148 3.95543,0.44012 10.87141,1.30458 6.48847,0.81106 12.98691,1.83109 19.56852,1.30456 5.53063,-0.44244 10.67194,-1.62409 16.08968,-2.60914 5.92544,-1.07735 12.0966,-1.43152 17.8291,-3.47885 4.69349,-1.67624 9.59882,-4.23865 13.48054,-7.39255 7.50754,-6.09987 0.79068,-1.14927 6.52285,-5.65313 1.13978,-0.89555 2.3723,-1.67283 3.47885,-2.60913 0.78248,-0.6621 1.36186,-1.54935 2.17427,-2.17429 8.14313,-6.26393 -1.2563,2.1669 6.95771,-4.78342 7.1523,-6.05195 11.27251,-15.51982 13.48054,-24.35194 0.31274,-1.25087 -0.0822,-3.11513 0,-4.34856 0.25836,-3.87567 1.08601,-9.57359 0.43481,-13.48055 -0.2717,-1.63021 -1.05326,-3.14992 -1.30456,-4.78341 -0.48445,-3.14888 -0.0249,-6.62356 -0.86972,-10.00169 -0.44975,-1.79912 0.18424,-4.24539 0,-6.08799 -0.10199,-1.01988 -0.11075,-2.07163 -0.43489,-3.04399 -0.53737,-1.61206 -0.43489,0.53006 -0.43489,-0.86971 0,-0.96798 -0.14376,-2.1708 -0.43489,-3.044 -0.0651,-0.19444 -0.34318,-0.25146 -0.43489,-0.43489 -0.12963,-0.25933 0,-1.15962 0,-0.86972 0,3.79789 -6.00582,13.54866 -7.82742,17.39425 -0.53014,1.11926 -0.75068,2.37113 -1.30457,3.47885 -1.71092,3.42185 -3.84765,6.64867 -5.65313,10.00169 -0.52339,0.97197 -0.76843,2.07899 -1.30456,3.04399 -2.17429,3.91371 0,-0.86971 -1.30457,1.30458 -1.53893,2.56486 -1.16995,1.60479 -3.044,3.47884 -2.08862,2.08863 -3.98493,4.41979 -6.08799,6.52284 -1.01466,1.01467 -2.02932,2.02934 -3.04398,3.044 -0.4349,0.72474 -0.7392,1.54604 -1.30458,2.17428 -1.51468,1.68298 -3.61722,2.74752 -5.21827,4.34856 -0.3696,0.36952 -0.43754,1.01069 -0.86971,1.30457 -7.20631,4.90029 -13.60091,8.03944 -21.74281,10.8714 -1.67721,0.58339 -6.54281,-0.37369 -7.82741,-0.43489 -5.06758,-0.24134 -10.1486,-0.14087 -15.21997,0 -1.88921,0.0522 -3.76513,0.34904 -5.65313,0.43489 -7.63375,0.34703 -15.41818,0 -23.04737,0 -3.96554,0 -8.67807,0.60508 -12.610832,0 -1.043002,-0.16046 -2.010912,-0.65446 -3.043996,-0.86971 -2.449668,-0.51039 -4.926674,-0.87941 -7.392557,-1.30456 -5.267721,-0.90825 -10.329752,-1.74035 -15.21978,-3.9137 -0.713312,-0.31702 -1.52479,-0.43671 -2.174281,-0.86971 -0.682258,-0.45484 -1.092177,-1.23601 -1.739424,-1.73942 -3.011024,-2.34191 -6.684871,-4.00112 -9.566837,-6.52285 -3.788287,-3.31475 -6.91502,-7.27144 -10.871404,-10.43654 -4.762174,-3.80975 -0.423974,0.15221 -5.218274,-3.044 -2.237734,-1.49182 -4.014461,-3.55945 -6.087986,-5.21827 -0.816215,-0.65297 -1.827898,-1.04499 -2.609137,-1.73943 -0.541693,-0.4815 -0.792086,-1.22694 -1.304569,-1.73942 -0.512483,-0.51248 -1.200715,-0.81973 -1.739425,-1.30457 -2.036932,-1.83324 -4.269794,-4.01005 -6.087986,-6.08799 -0.688312,-0.78663 -1.000311,-1.87002 -1.739425,-2.60913 -1.972982,-1.97298 -4.854803,-3.62162 -6.087986,-6.08799 -1.364926,-2.72985 -0.237305,-4.42807 -0.869713,-6.95769 -0.955107,-3.82044 -0.557288,-8.27499 0,-12.17598 z"
     id="path8" />
  <path
     style="fill:#000000;stroke-width:8.03125"
     d="M 37.814366,56.096447 C 37.37951,55.226734 36.996988,54.328823 36.509798,53.48731 35.872475,52.386482 26.208325,37.697411 27.377817,36.527919 c 0.409988,-0.409987 1.160617,-0.03405 1.739425,0 2.030989,0.119473 4.070577,0.171716 6.087987,0.434852 2.824886,0.368466 8.239191,1.500837 10.871404,2.609137 2.688506,1.132003 5.218274,2.609137 7.827411,3.913706 0.400021,0.20001 2.894615,2.24897 3.913705,1.739425 0.390825,-0.195417 -0.293052,-4.183161 0,-6.087988 2.614488,-11.765189 1.168775,-3.796741 2.174282,-12.175968 0.261348,-2.177898 0.661746,-4.339201 0.869712,-6.522842 0.11635,-1.221678 -0.336349,-2.756898 0.434856,-3.913706 0.08041,-0.120606 0.292715,0.02843 0.434852,0 3.118187,-0.623635 0.604296,-0.879589 4.348562,1.304569 0.839911,0.489946 1.809664,0.751082 2.609137,1.304568 2.624633,1.817053 4.838765,4.172644 7.392555,6.087986 3.44771,2.585782 6.508896,5.204321 9.566843,8.262267 1.301528,1.301538 1.596998,2.067138 3.043988,0 0.670208,-0.957387 1.387511,-1.929597 1.739424,-3.043993 4.06374,-12.868508 -1.422286,0.432459 1.739424,-8.262267 0.2827,-0.777505 2.290842,-5.271171 2.609145,-5.65313 2.322059,-2.786474 5.553061,-2.84293 7.827411,0 1.23162,1.53953 2.52872,3.055905 3.47885,4.783418 0.66273,1.204915 0.85029,2.615771 1.30456,3.913705 0.69334,1.981003 2.43166,6.492725 3.044,8.697124 0.44477,1.601075 0.55865,4.596213 1.30457,6.087986 0.065,0.129649 -0.14497,0.434852 0,0.434852 0.85843,0 4.69275,-7.660019 4.78341,-7.827411 4.76056,-8.788725 1.7174,-3.348002 6.52284,-10.001692 0.85876,-1.189052 3.56064,-6.699377 6.52284,-5.218274 1.47913,0.739565 1.45771,3.315586 1.73943,4.348562 0.55528,2.036167 1.39245,4.006169 1.73942,6.087986 0.23829,1.429799 -0.0763,2.901045 0,4.348562 0.0691,1.310783 0.31041,2.607022 0.43481,3.913705 0.51914,5.450755 0.43489,3.925481 0.43489,8.262268 0,0.739116 -0.15644,2.617749 0.4349,2.174281 4.26526,-3.19894 1.84396,-2.190762 6.52284,-5.218275 3.61183,-2.337064 7.40787,-4.360039 10.87141,-6.957698 0.90569,-0.679267 1.65865,-1.55926 2.60913,-2.174281 7.513,-4.86135 2.22943,-0.593557 7.39256,-4.348562 0.76369,-0.555401 5.51091,-4.925642 6.52284,-3.913705 0.95652,0.956517 0.0808,6.134999 0,6.522842 -1.31038,6.289861 -4.10387,11.916065 -6.52284,17.829104 -0.66314,1.62106 -1.5238,3.157225 -2.17428,4.783418 -0.1077,0.269167 -0.28993,0.869712 0,0.869712 0.20503,0 0.25908,-0.329386 0.43489,-0.43486 4.75601,-2.853608 -2.52182,2.956688 5.65313,-5.218274 7.18134,-7.181337 16.00738,-12.049188 23.91709,-18.26396 0.64475,-0.506595 1.05717,-1.284586 1.73942,-1.739425 0.0643,-0.04297 3.60538,-2.047749 4.34856,-1.304568 0.30752,0.307492 0,0.869712 0,1.304568 0,2.902663 0.7237,5.808867 0.43489,8.697124 -0.22391,2.239093 -1.14101,4.353608 -1.73942,6.522843 -2.97599,10.787942 -0.59552,1.512285 -3.044,11.30626 -0.14496,0.579808 -0.43489,1.141772 -0.43489,1.739425 0,0.144948 0.30519,0.06481 0.43489,0 2.20404,-1.102017 4.35955,-2.298869 6.52286,-3.478849 13.14033,-7.167464 -6.66201,3.330994 6.08798,-3.043994 0.4675,-0.233726 0.81932,-0.675613 1.30457,-0.869712 0.67294,-0.269168 1.44952,0 2.17428,0 0.34896,0 2.91138,-0.265224 3.044,0 0.19443,0.388945 0,0.869712 0,1.304569 0,1.014664 -0.11204,2.035534 0,3.043993 0.0361,0.322141 0.43481,0.545587 0.43481,0.869712 0,6.537404 -1.76413,12.173498 -3.9137,18.263959 -0.53938,1.528223 -0.6368,3.836079 -2.17429,4.348562 -1.73334,0.577772 -8.68083,-5.130286 -10.4366,-6.087978 -4.23184,-2.308276 -8.89516,-4.032529 -13.04569,-6.522843 -1.68571,-1.011428 -2.58141,-1.946456 -4.34856,-2.609137 -0.5596,-0.20985 -1.19534,-0.187546 -1.73942,-0.434856 -1.06389,-0.483587 -1.97334,-1.271012 -3.044,-1.739425 -2.6745,-1.170095 -8.10616,-2.334746 -10.43654,-3.043993 -4.5148,-1.374067 -8.29961,-3.266513 -13.04569,-3.913706 -4.64421,-0.633302 -9.27974,-0.35464 -13.9154,-0.869712 -2.57419,-0.286017 -5.26058,0.342244 -7.82741,0 -1.04601,-0.139471 -2.00574,-0.680938 -3.04399,-0.869712 -0.57046,-0.103716 -1.16249,0.05766 -1.73943,0 -2.03558,-0.20356 -4.04954,-0.699843 -6.08798,-0.869713 -4.18747,-0.348958 -8.41926,-0.34577 -12.61083,-0.869712 -1.4455,-0.180687 -2.90306,-0.254165 -4.348561,-0.434852 -2.96798,-0.370996 -5.758213,-2.456212 -8.697129,-3.043993 -3.668434,-0.733687 -7.837086,0.89643 -11.306258,1.304568 -1.007714,0.118557 -2.032317,-0.07782 -3.043993,0 -0.879112,0.06762 -1.730025,0.367229 -2.609137,0.43486 -2.88043,0.221574 -5.818188,-0.23991 -8.697123,0 -9.449534,0.787464 0.979442,0.04064 -5.653131,0.869712 -1.139643,0.142458 -2.342163,-0.162384 -3.478849,0 -1.604325,0.229188 -3.201397,0.518152 -4.783418,0.869712 -2.063289,0.458512 -4.606234,1.215977 -6.522843,2.174281 -0.183353,0.09168 -0.240383,0.370032 -0.434852,0.434852 -0.280748,0.09358 -1.44085,-0.199046 -1.739424,0 -1.705651,1.137094 -2.899045,2.899038 -4.348566,4.348559 z"
     id="path9" />
</svg>
